<svg width="67" height="67" viewBox="0 0 67 67" fill="none" xmlns="http://www.w3.org/2000/svg">
<path fill-rule="evenodd" clip-rule="evenodd" d="M33.5134 0.706223C51.6322 0.706223 66.3261 15.4002 66.3261 33.5189C66.3261 51.6377 51.6322 66.3316 33.5134 66.3316C15.3946 66.3316 0.700684 51.6377 0.700684 33.5189C0.700684 15.4002 15.3946 0.706223 33.5134 0.706223ZM26.6994 44.1767L18.6661 36.1367C17.2975 34.7673 17.2972 32.5342 18.6661 31.165C20.0352 29.7962 22.2783 29.8047 23.6375 31.165L29.301 36.8329L43.3898 22.7442C44.7589 21.375 46.9923 21.375 48.3612 22.7442C49.7304 24.113 49.7284 26.3484 48.3612 27.7156L31.7827 44.2941C30.4155 45.6613 28.1801 45.6633 26.8112 44.2941C26.7728 44.2557 26.7357 44.2166 26.6994 44.1767Z" fill="#8065FF"/>
</svg>
